<svg width="17" height="17" viewBox="0 0 17 17" fill="none" xmlns="http://www.w3.org/2000/svg">
<g clip-path="url(#clip0_15_2)">
<path d="M12.3187 3.98238C12.2471 3.91254 12.1057 3.91428 11.9643 3.91602L4.89372 4.00298C4.32808 4.00994 3.90906 4.43938 3.91602 5.00503C3.92298 5.57067 4.35243 5.98968 4.91807 5.98273L9.58462 5.92534L4.2771 11.365C3.85809 11.7945 3.93662 12.43 4.29449 12.7791C4.65237 13.1283 5.28959 13.1912 5.7086 12.7617L11.0161 7.32205L11.0735 11.9886C11.0805 12.5542 11.5099 12.9733 12.0756 12.9663C12.6412 12.9593 13.0602 12.5299 13.0533 11.9643L12.9663 4.89372C12.9646 4.75231 12.9628 4.6109 12.8912 4.54107C12.7464 4.25998 12.6032 4.12031 12.3187 3.98238Z" fill="#DCEF1E"/>
</g>
<defs>
<clipPath id="clip0_15_2">
<rect width="12" height="12" fill="white" transform="translate(0 8.58899) rotate(-45.7046)"/>
</clipPath>
</defs>
</svg>
