<svg width="470" height="93" viewBox="0 0 470 93" preserveAspectRatio="none" fill="none" xmlns="http://www.w3.org/2000/svg">
<g clip-path="url(#clip0_17_70)">
<path d="M244.597 93C173.996 93 101.207 88.9468 68.8442 84.7288C49.4233 82.198 32.8307 77.7014 20.869 71.7295C9.65388 66.1304 2.64729 59.3894 0.618469 52.2326C-3.00927 39.4608 9.54075 27.2581 34.1883 19.5872C60.3065 11.4573 123.962 0.00784744 183.672 0V2.35423C124.821 2.35816 62.1845 13.6153 36.5037 21.6079C13.4853 28.7687 1.74224 40.0886 5.09092 51.8873C9.11086 66.0441 33.962 77.7524 69.9378 82.4452C104.103 86.8986 183.831 91.1676 258.12 90.5948C324.807 90.0847 412.001 85.7058 448.686 67.7587C462.594 60.9589 467.888 52.6132 464.434 42.9647C462.428 37.3538 454.033 32.3079 439.485 27.9683C409.95 19.1595 354.757 13.4191 288.04 12.2263C229.694 11.1826 171.869 13.9645 144.159 19.1517L142.628 16.9348C171.266 11.571 228.404 8.8009 288.198 9.87208C355.624 11.0806 411.587 16.9308 441.732 25.924C457.488 30.6246 466.621 36.212 468.884 42.5292C472.64 53.0212 466.885 62.085 451.786 69.4695C414.038 87.9345 325.675 92.4271 258.188 92.9451C253.678 92.9843 249.138 93 244.597 93Z" fill="#DCEF1E"/>
</g>
<defs>
<clipPath id="clip0_17_70">
<rect width="470" height="93" fill="white"/>
</clipPath>
</defs>
</svg>
