<svg width="173" height="40" viewBox="0 0 173 40" fill="none" xmlns="http://www.w3.org/2000/svg">
<g clip-path="url(#clip0_1_2)">
<path d="M0 35.6542V34.9985H172.778L172.632 35.6542H0ZM165.95 11.8938C167.676 11.8938 169.23 11.8076 170.567 11.6357V12.0228C169.747 12.1947 169.101 12.6678 168.539 13.3989C167.979 14.13 167.676 15.721 167.676 18.1293V28.1493C167.676 30.2995 167.979 31.7615 168.539 32.4926C169.144 33.2237 169.834 33.6968 170.567 33.9118V34.2989C169.23 34.1268 167.719 34.0408 165.95 34.0408V11.8938ZM159.734 33.9118C160.813 33.6108 161.591 33.0088 162.022 32.1057C162.411 31.1596 162.627 29.4824 162.627 27.0741V17.6993C162.627 15.8501 162.411 14.5169 161.979 13.6569C161.548 12.8398 160.813 12.2807 159.734 12.0228V11.6357C161.462 11.7647 163.014 11.8507 164.353 11.8938V34.0408C163.36 34.0408 161.806 34.1268 159.734 34.2989V33.9118ZM149.852 34.0408L137.293 20.2796L142.127 16.4091C143.81 15.0761 144.63 14.0869 144.63 13.3989C144.63 12.8398 144.155 12.4097 143.249 12.0228V11.6357C143.896 11.6357 144.716 11.6787 145.795 11.8077C146.745 11.8508 147.435 11.8938 147.91 11.8938C148.341 11.8938 148.902 11.8508 149.55 11.8077C150.499 11.7646 151.406 11.6787 152.226 11.6357V12.0228C150.24 12.5387 148.082 13.6998 145.752 15.506L144.328 16.5812C144.234 16.6438 144.148 16.7159 144.069 16.7961L139.624 20.3655L148.039 29.6115C150.586 32.4497 152.485 33.8689 153.779 33.9118V34.2989C151.837 34.1268 150.801 34.0408 150.758 34.0408H149.852ZM135.178 18.0863V21.9566L136.085 21.2257L147.78 34.0408H145.493L135.178 22.6017V29.9984C135.178 31.1596 135.351 32.0627 135.74 32.6217C136.128 33.1807 136.775 33.6108 137.768 33.9118V34.2989C135.912 34.1268 134.488 34.0408 133.409 34.0408V11.8938C135.351 11.8507 136.775 11.7647 137.768 11.6357V12.0228C136.732 12.2807 136.042 12.7537 135.696 13.4419C135.351 14.1301 135.178 15.6782 135.178 18.0863ZM127.583 33.9118C129.266 33.5678 130.129 32.2776 130.129 29.9984V16.1081C130.129 14.8611 129.956 13.9579 129.611 13.3558C129.266 12.7537 128.575 12.3237 127.583 12.0228V11.6357C128.921 11.7647 130.345 11.8507 131.855 11.8938V34.0408C131.122 34.0408 129.697 34.1268 127.583 34.2989V33.9118ZM119.124 12.9258C118.563 13.3989 118.218 14.0009 118.002 14.689C117.786 15.4201 117.7 16.4091 117.7 17.6993V30.5145L95.8188 11.8938H98.322L116.017 26.9451V18.2153C116.017 16.7961 115.93 15.6781 115.714 14.8611C115.542 14.13 115.153 13.4848 114.549 13.0118C113.945 12.5387 113.168 12.1947 112.219 12.0228V11.6357C112.219 11.6357 112.478 11.6787 112.952 11.7217C114.808 11.8507 116.06 11.8938 116.707 11.8938C117.311 11.8938 118.735 11.8076 121.023 11.6357V12.0228C120.289 12.1518 119.685 12.4528 119.124 12.9258ZM117.7 34.2989H117.311L98.1925 18.0863V27.8483C98.1925 29.9984 98.4515 31.4606 99.0124 32.2776C99.5733 33.0947 100.437 33.6537 101.602 33.9118V34.2989C99.4872 34.1268 98.063 34.0408 97.2861 34.0408C96.4231 34.0408 95.1284 34.1268 93.402 34.2989V33.9118C94.6104 33.6108 95.4304 33.0518 95.905 32.2346C96.3366 31.3746 96.5524 29.8694 96.5524 27.6762L96.5094 16.7102L94.9988 15.4201C92.8841 13.6569 91.1146 12.4958 89.6472 12.0228V11.6357L93.4452 11.8938L117.7 32.5788V34.2989ZM82.1814 34.2989C80.5846 34.1268 79.1604 34.0408 77.9088 34.0408H69.45V11.8938H75.5783C76.7436 11.8938 78.9015 11.8076 82.1382 11.6357C82.1068 11.9501 82.0924 12.2659 82.0951 12.5818C82.0951 12.8828 82.1382 13.5279 82.1814 14.5599C82.2246 15.248 82.2677 15.6351 82.2677 15.6781V16.1941H81.8793C81.4045 14.9899 80.8004 14.2159 80.153 13.8719C79.5056 13.5279 78.2973 13.3558 76.5278 13.3558H73.1615C72.6437 13.3558 72.1689 13.3989 71.6942 13.4419C71.4352 13.915 71.3057 15.0761 71.2626 16.8821L71.2194 18.3013V21.6987H75.7509C77.4772 21.6987 78.5994 21.5697 79.1603 21.2686C79.7213 20.9674 80.1962 20.2796 80.5414 19.1614H80.973C80.8597 20.2472 80.8021 21.338 80.8004 22.4296C80.8004 23.0317 80.8436 23.8058 80.9299 24.752C80.973 25.0529 81.0161 25.6119 81.0594 26.4292H80.5846C80.4551 25.182 80.11 24.3649 79.4626 23.8918C78.8152 23.4188 77.8225 23.2038 76.4847 23.2038H71.2194V27.7622C71.2194 29.5253 71.3057 31.0735 71.5215 32.4067C72.0826 32.4926 72.73 32.5357 73.4204 32.5357H76.6141C78.3404 32.5357 79.6351 32.3207 80.5414 31.9336C81.4476 31.5465 82.3972 30.6435 83.3036 29.2244H83.692C83.5625 29.8694 83.3036 30.6435 83.0014 31.4606C82.613 32.5357 82.354 33.4818 82.1814 34.2989ZM63.4511 34.2989V33.9118C64.1847 33.6968 64.7889 33.3528 65.1774 32.8367C65.5659 32.3205 65.8678 31.7186 65.9973 31.0306C66.1268 30.2995 66.2131 28.7513 66.2131 26.3861V17.6132C66.2131 15.592 65.9541 14.1729 65.3932 13.4419C64.8321 12.6678 64.1847 12.1947 63.4511 12.0228V11.6357C64.271 11.6787 65.5658 11.7647 67.2489 11.8938H67.9395V34.0408H66.5584C66.0836 34.0408 65.0478 34.1268 63.4511 34.2989ZM55.2274 25.7866H54.2034V34.2727H45.8643V22.7253H43.8162V19.0808H51.2774V23.7458H52.8867L55.5201 21.2676V17.9146H56.3978V16.4569H58.7385V34.2727H55.2274V25.7866ZM46.8154 19.7368H44.7671V21.7778H46.8154V19.7368ZM50.2533 19.7368H48.2052V21.7778H50.2533V19.7368ZM50.2533 27.6818H48.2052V29.7226H50.2533V27.6818ZM53.1793 27.6818H51.1311V29.7226H53.1793V27.6818ZM55.959 29.7226H58.0071V27.6818H55.959V29.7226ZM55.959 26.2969H58.0071V24.4017H55.959V26.2969ZM55.959 23.2355H58.0071V21.1947H56.6173L55.959 21.7778V23.2355ZM40.4514 23.4542H44.8403V34.2727H35.4772V13.5413H39.8662V12.2293H41.3292V13.6871H42.7922V22.288H40.4514V23.4542ZM41.8733 29.7226H43.9576V27.6818H41.8733V29.7226ZM41.8733 26.2969H43.9576V24.4017H41.8733V26.2969ZM39.1307 15.2178H37.0865V17.2587H39.1307V15.2178ZM39.1307 24.4017H37.0865V26.2969H39.1307V24.4017ZM41.8733 15.2178H39.793V17.2587H41.8733V15.2178ZM41.8733 20.1743V18.1333H39.793V20.1743H41.8733ZM15.6539 34.2727L15.5807 22.5067H22.5298V34.2727H15.6539ZM18.5799 23.2355H16.5316V25.2764H18.5799V23.2355ZM18.5799 26.2969H16.5316V28.3378H18.5799V26.2969ZM21.7982 23.2355H19.7503V25.2764H21.7982V23.2355ZM21.7982 26.2969H19.7503V28.3378H21.7982V26.2969ZM33.9412 24.256H33.1364V34.2727H25.5289V24.3288H24.7244L24.4317 34.2727H23.8465L24.0659 21.3405H14.6298V34.2727H13.8983V26.7343H12.8011V34.2727H6.21763L6.29079 26.8072H4.90095V34.2727H1.38983V22.1422H4.31584V20.393H8.55842V24.7662H9.72882V17.3316H12.5085V13.2497H13.24V17.3316H15.4344V15.5823H17.0437V17.4773H18.2141V12.2293H25.5289V23.3084H26.9919V7.71025H27.7234V1.58758H29.0401V0.0150146H31.8197V1.87915H33.2827V7.71025H34.5994V34.2727H34.0143L33.9412 24.256ZM4.24264 24.4017H2.19447V26.2969H4.24264V24.4017ZM4.24264 27.6818H2.19447V29.7226H4.24264V27.6818ZM7.68063 21.7778H5.63246V23.8186H7.68063V21.7778ZM9.07046 27.6818H7.02229V29.7226H9.07046V27.6818ZM12.1445 18.1333H10.0945V20.1743H12.1445V18.1333ZM12.1445 21.1947H10.0945V23.2355H12.1445V21.1947ZM12.1445 27.6818H10.0945V29.7226H12.1445V27.6818ZM15.5076 18.1333H13.4594V20.1743H15.5076V18.1333ZM21.7982 13.7599H19.7503V15.8009H21.7982V13.7599ZM21.7982 16.7485H19.7503V18.7893H21.7982V16.7485ZM24.7601 16.7485H22.6761V18.7893H24.7601V16.7485ZM30.7225 29.7226H32.5513V27.6818H30.7225V29.7226ZM30.7225 26.2969H32.5513V24.4017H30.7225V26.2969ZM28.7093 7.78307V9.82401H30.7225V7.78307H28.7093ZM30.7225 6.83551V4.83962H28.7093V6.83557H30.7225V6.83551ZM28.7093 10.7716V12.8124H30.7225V10.7716H28.7093ZM28.7093 13.7599V15.8009H30.7225V13.7599H28.7093ZM28.7093 16.7485V18.7893H30.7225V16.7485H28.7093ZM28.7093 19.7368V21.7778H30.7225V19.7368H28.7093ZM26.6262 24.4017V26.2969H28.7093V24.4017H26.6262ZM31.5615 2.32639H28.7093V3.85618H31.5615V2.32639ZM33.5754 13.7599H31.5615V15.8009H33.5754V13.7599ZM33.5754 16.7485H31.5615V18.7893H33.5754V16.7485ZM33.5754 19.7368H31.5615V21.7778H33.5754V19.7368ZM172.485 37.0843H1.38983V36.3555H172.778L172.485 37.0843ZM172.12 38.5422H2.19447V37.8134H172.632L172.12 38.5422ZM171.315 40H4.24264V39.2711H171.681L171.315 40Z" fill="#DCEF1E"/>
</g>
<defs>
<clipPath id="clip0_1_2">
<rect width="172.778" height="40" fill="white"/>
</clipPath>
</defs>
</svg>
