<svg width="14" height="12" viewBox="0 0 14 12" fill="none" xmlns="http://www.w3.org/2000/svg">
<g clip-path="url(#clip0_35_537)">
<path d="M12.9829 0.133638L0.548267 4.97235C0.548267 4.97235 -0.0416468 5.1705 0.00480314 5.53917C0.051253 5.90783 0.529687 6.07834 0.529687 6.07834L3.65577 7.12442L3.66041 7.12903V7.12442L11.1667 2.3917C11.1667 2.3917 11.5987 2.12903 11.5848 2.3917C11.5848 2.3917 11.6637 2.43779 11.4315 2.65438C11.1992 2.87097 5.53234 7.92166 5.53234 7.92166L5.52305 8.01843L10.6233 11.8986C11.4733 12.2673 11.7845 11.4977 11.7845 11.4977L14.0002 0.423961C14.0002 -0.313367 12.9783 0.133638 12.9829 0.133638Z" fill="black"/>
<path d="M7.4739 9.5023L5.45333 11.3318C5.45333 11.3318 5.2954 11.4516 5.12354 11.3779L5.50907 7.98157" fill="black"/>
</g>
<defs>
<clipPath id="clip0_35_537">
<rect width="14" height="12" fill="white"/>
</clipPath>
</defs>
</svg>
