<svg width="15" height="16" viewBox="0 0 15 16" fill="none" xmlns="http://www.w3.org/2000/svg">
<g clip-path="url(#clip0_35_540)">
<path d="M13.74 8.96292C13.35 12.2074 10.995 12.4148 10.56 12.5629C10.38 12.6222 8.65499 13.0518 6.50999 12.9185L4.16999 15.4814V12.5333H4.15499C1.01999 11.6444 1.12499 8.3407 1.15499 6.60736C1.18499 4.87403 1.51499 3.45181 2.47499 2.48885C4.19999 0.918475 7.73999 1.15551 7.73999 1.15551C10.74 1.17033 12.165 2.07403 12.495 2.38514C13.59 3.33329 14.16 5.61477 13.74 8.96292ZM13.305 1.55551C12.915 1.19996 11.325 0.0295867 7.78499 0.0147719C7.78499 0.0147719 3.61499 -0.23708 1.57499 1.6444C0.449986 2.78514 0.044986 4.45922 0.014986 6.53329C-0.030014 8.60736 -0.075014 12.5037 3.62999 13.5555V15.1703C3.62999 15.1703 3.59999 15.8222 4.03499 15.9555C4.54499 16.1185 4.84499 15.6148 5.33999 15.0814C5.60999 14.7851 5.98499 14.3555 6.25499 14.0296C8.78999 14.2518 10.74 13.7481 10.965 13.674C11.475 13.5111 14.37 13.1259 14.85 9.2444C15.33 5.2444 14.61 2.69625 13.305 1.55551Z" fill="black"/>
<path d="M11.04 9.45182C11.04 9.45182 10.56 9.05182 10.335 8.87405C10.11 8.71108 9.76499 8.48886 9.56999 8.38516C9.22499 8.19256 8.86499 8.31108 8.71499 8.50368L8.41499 8.88886C8.26499 9.08145 8.00999 9.05182 7.94999 9.03701C7.49999 8.91849 7.01999 8.65182 6.52499 8.17775C6.02999 7.70368 5.72999 7.19997 5.62499 6.69627L5.60999 6.66664C5.57999 6.45923 5.60999 6.35553 5.69999 6.20738L5.71499 6.19256C5.92499 5.99997 6.29999 5.77775 6.35999 5.55553C6.50999 5.17034 5.84999 4.37034 5.75999 4.23701C5.75999 4.23701 5.27999 3.61479 5.11499 3.49627C4.93499 3.34812 4.64999 3.25923 4.36499 3.43701H4.34999C3.52499 3.98516 3.23999 4.29627 3.31499 4.77034L3.35999 4.96293C3.77999 6.25182 4.57499 7.64442 5.77499 8.87405C6.95999 10.074 8.24999 10.8 9.50999 11.3037C9.83999 11.4074 10.185 11.3185 10.53 11.0222C10.8 10.7703 11.01 10.5037 11.16 10.2222C11.325 9.9259 11.265 9.64442 11.04 9.45182Z" fill="black"/>
<path d="M9.07503 6.60738C9.03003 6.60738 8.98503 6.56294 8.98503 6.51849C8.97003 6.17775 8.88003 5.9259 8.71503 5.74812C8.55003 5.57034 8.31003 5.48146 7.99503 5.46664C7.95003 5.46664 7.90503 5.4222 7.90503 5.36294C7.90503 5.30368 7.95003 5.27405 8.01003 5.27405C8.38503 5.28886 8.67003 5.40738 8.86503 5.61479C9.06003 5.8222 9.16503 6.11849 9.19503 6.50368C9.18003 6.56294 9.13503 6.60738 9.07503 6.60738Z" fill="black"/>
<path d="M10.005 6.9333C9.94498 6.9333 9.91498 6.88886 9.91498 6.8296C9.92998 6.19256 9.73498 5.64441 9.34498 5.21478C9.14998 4.99256 8.90998 4.8296 8.63998 4.71108C8.36998 4.59256 8.05498 4.51849 7.69498 4.48886C7.64998 4.48886 7.60498 4.44441 7.60498 4.38515C7.60498 4.32589 7.64998 4.29626 7.70998 4.29626C8.45998 4.35552 9.05998 4.62219 9.47998 5.08145C9.89998 5.55552 10.11 6.1333 10.095 6.8296C10.11 6.88886 10.065 6.9333 10.005 6.9333Z" fill="black"/>
<path d="M10.9649 7.30366C10.9199 7.30366 10.8749 7.25921 10.8749 7.21477C10.8749 6.6518 10.7849 6.13329 10.6199 5.68884C10.4549 5.2444 10.1999 4.85921 9.86993 4.53329C9.53993 4.20736 9.16493 3.95551 8.75993 3.79254C8.35493 3.62958 7.88993 3.54069 7.39493 3.54069C7.34993 3.54069 7.30493 3.49625 7.30493 3.4518C7.30493 3.39254 7.34993 3.36292 7.39493 3.36292C8.42993 3.37773 9.29993 3.71847 10.0049 4.41477C10.3499 4.75551 10.6199 5.17032 10.7999 5.6444C10.9799 6.11847 11.0699 6.6518 11.0699 7.2444C11.0699 7.25921 11.0249 7.30366 10.9649 7.30366Z" fill="black"/>
</g>
<defs>
<clipPath id="clip0_35_540">
<rect width="15" height="16" fill="white"/>
</clipPath>
</defs>
</svg>
